<svg xmlns="http://www.w3.org/2000/svg" xmlns:xlink="http://www.w3.org/1999/xlink" width="1920" zoomAndPan="magnify" viewBox="0 0 1440 809.999993" height="1080" preserveAspectRatio="xMidYMid meet" version="1.0"><defs><g/><clipPath id="45118acbf2"><path d="M 66.492188 174.894531 L 1373.492188 174.894531 L 1373.492188 634.667969 L 66.492188 634.667969 Z M 66.492188 174.894531 " clip-rule="nonzero"/></clipPath><clipPath id="a955f08317"><path d="M 97.992188 174.894531 L 1342.007812 174.894531 C 1350.363281 174.894531 1358.375 178.210938 1364.28125 184.117188 C 1370.191406 190.027344 1373.507812 198.039062 1373.507812 206.394531 L 1373.507812 603.609375 C 1373.507812 611.960938 1370.191406 619.972656 1364.28125 625.882812 C 1358.375 631.789062 1350.363281 635.109375 1342.007812 635.109375 L 97.992188 635.109375 C 89.636719 635.109375 81.625 631.789062 75.71875 625.882812 C 69.808594 619.972656 66.492188 611.960938 66.492188 603.609375 L 66.492188 206.394531 C 66.492188 198.039062 69.808594 190.027344 75.71875 184.117188 C 81.625 178.210938 89.636719 174.894531 97.992188 174.894531 " clip-rule="nonzero"/></clipPath><linearGradient x1="-0.00000142562" gradientTransform="matrix(1.803035, 0, 0, 1.803035, 66.490729, 174.892778)" y1="0" x2="724.890634" gradientUnits="userSpaceOnUse" y2="0" id="25674c172a"><stop stop-opacity="1" stop-color="rgb(89.399719%, 93.299866%, 100%)" offset="0"/><stop stop-opacity="1" stop-color="rgb(89.239502%, 93.174744%, 100%)" offset="0.015625"/><stop stop-opacity="1" stop-color="rgb(88.920593%, 92.9245%, 100%)" offset="0.03125"/><stop stop-opacity="1" stop-color="rgb(88.601685%, 92.674255%, 100%)" offset="0.046875"/><stop stop-opacity="1" stop-color="rgb(88.282776%, 92.424011%, 100%)" offset="0.0625"/><stop stop-opacity="1" stop-color="rgb(87.963867%, 92.173767%, 100%)" offset="0.078125"/><stop stop-opacity="1" stop-color="rgb(87.644958%, 91.923523%, 100%)" offset="0.09375"/><stop stop-opacity="1" stop-color="rgb(87.32605%, 91.674805%, 100%)" offset="0.109375"/><stop stop-opacity="1" stop-color="rgb(87.008667%, 91.424561%, 100%)" offset="0.125"/><stop stop-opacity="1" stop-color="rgb(86.689758%, 91.174316%, 100%)" offset="0.140625"/><stop stop-opacity="1" stop-color="rgb(86.37085%, 90.924072%, 100%)" offset="0.15625"/><stop stop-opacity="1" stop-color="rgb(86.051941%, 90.673828%, 100%)" offset="0.171875"/><stop stop-opacity="1" stop-color="rgb(85.733032%, 90.423584%, 100%)" offset="0.1875"/><stop stop-opacity="1" stop-color="rgb(85.414124%, 90.174866%, 100%)" offset="0.203125"/><stop stop-opacity="1" stop-color="rgb(85.095215%, 89.924622%, 100%)" offset="0.21875"/><stop stop-opacity="1" stop-color="rgb(84.776306%, 89.674377%, 100%)" offset="0.234375"/><stop stop-opacity="1" stop-color="rgb(84.457397%, 89.424133%, 100%)" offset="0.25"/><stop stop-opacity="1" stop-color="rgb(84.138489%, 89.173889%, 100%)" offset="0.265625"/><stop stop-opacity="1" stop-color="rgb(83.821106%, 88.923645%, 100%)" offset="0.28125"/><stop stop-opacity="1" stop-color="rgb(83.502197%, 88.673401%, 100%)" offset="0.296875"/><stop stop-opacity="1" stop-color="rgb(83.183289%, 88.424683%, 100%)" offset="0.3125"/><stop stop-opacity="1" stop-color="rgb(82.86438%, 88.174438%, 100%)" offset="0.328125"/><stop stop-opacity="1" stop-color="rgb(82.545471%, 87.924194%, 100%)" offset="0.34375"/><stop stop-opacity="1" stop-color="rgb(82.226562%, 87.67395%, 100%)" offset="0.359375"/><stop stop-opacity="1" stop-color="rgb(81.907654%, 87.423706%, 100%)" offset="0.375"/><stop stop-opacity="1" stop-color="rgb(81.588745%, 87.173462%, 100%)" offset="0.390625"/><stop stop-opacity="1" stop-color="rgb(81.269836%, 86.924744%, 100%)" offset="0.40625"/><stop stop-opacity="1" stop-color="rgb(80.950928%, 86.6745%, 100%)" offset="0.421875"/><stop stop-opacity="1" stop-color="rgb(80.633545%, 86.424255%, 100%)" offset="0.4375"/><stop stop-opacity="1" stop-color="rgb(80.314636%, 86.174011%, 100%)" offset="0.453125"/><stop stop-opacity="1" stop-color="rgb(79.995728%, 85.923767%, 100%)" offset="0.46875"/><stop stop-opacity="1" stop-color="rgb(79.676819%, 85.673523%, 100%)" offset="0.484375"/><stop stop-opacity="1" stop-color="rgb(79.35791%, 85.424805%, 100%)" offset="0.5"/><stop stop-opacity="1" stop-color="rgb(79.039001%, 85.174561%, 100%)" offset="0.515625"/><stop stop-opacity="1" stop-color="rgb(78.720093%, 84.924316%, 100%)" offset="0.53125"/><stop stop-opacity="1" stop-color="rgb(78.401184%, 84.674072%, 100%)" offset="0.546875"/><stop stop-opacity="1" stop-color="rgb(78.082275%, 84.423828%, 100%)" offset="0.5625"/><stop stop-opacity="1" stop-color="rgb(77.764893%, 84.173584%, 100%)" offset="0.578125"/><stop stop-opacity="1" stop-color="rgb(77.445984%, 83.924866%, 100%)" offset="0.59375"/><stop stop-opacity="1" stop-color="rgb(77.127075%, 83.674622%, 100%)" offset="0.609375"/><stop stop-opacity="1" stop-color="rgb(76.808167%, 83.424377%, 100%)" offset="0.625"/><stop stop-opacity="1" stop-color="rgb(76.489258%, 83.174133%, 100%)" offset="0.640625"/><stop stop-opacity="1" stop-color="rgb(76.170349%, 82.923889%, 100%)" offset="0.65625"/><stop stop-opacity="1" stop-color="rgb(75.85144%, 82.673645%, 100%)" offset="0.671875"/><stop stop-opacity="1" stop-color="rgb(75.532532%, 82.423401%, 100%)" offset="0.6875"/><stop stop-opacity="1" stop-color="rgb(75.213623%, 82.174683%, 100%)" offset="0.703125"/><stop stop-opacity="1" stop-color="rgb(74.894714%, 81.924438%, 100%)" offset="0.71875"/><stop stop-opacity="1" stop-color="rgb(74.577332%, 81.674194%, 100%)" offset="0.734375"/><stop stop-opacity="1" stop-color="rgb(74.258423%, 81.42395%, 100%)" offset="0.75"/><stop stop-opacity="1" stop-color="rgb(73.939514%, 81.173706%, 100%)" offset="0.765625"/><stop stop-opacity="1" stop-color="rgb(73.620605%, 80.923462%, 100%)" offset="0.78125"/><stop stop-opacity="1" stop-color="rgb(73.301697%, 80.674744%, 100%)" offset="0.796875"/><stop stop-opacity="1" stop-color="rgb(72.982788%, 80.4245%, 100%)" offset="0.8125"/><stop stop-opacity="1" stop-color="rgb(72.663879%, 80.174255%, 100%)" offset="0.828125"/><stop stop-opacity="1" stop-color="rgb(72.344971%, 79.924011%, 100%)" offset="0.84375"/><stop stop-opacity="1" stop-color="rgb(72.026062%, 79.673767%, 100%)" offset="0.859375"/><stop stop-opacity="1" stop-color="rgb(71.708679%, 79.423523%, 100%)" offset="0.875"/><stop stop-opacity="1" stop-color="rgb(71.389771%, 79.174805%, 100%)" offset="0.890625"/><stop stop-opacity="1" stop-color="rgb(71.070862%, 78.924561%, 100%)" offset="0.90625"/><stop stop-opacity="1" stop-color="rgb(70.751953%, 78.674316%, 100%)" offset="0.921875"/><stop stop-opacity="1" stop-color="rgb(70.433044%, 78.424072%, 100%)" offset="0.9375"/><stop stop-opacity="1" stop-color="rgb(70.114136%, 78.173828%, 100%)" offset="0.953125"/><stop stop-opacity="1" stop-color="rgb(69.795227%, 77.923584%, 100%)" offset="0.96875"/><stop stop-opacity="1" stop-color="rgb(69.476318%, 77.674866%, 100%)" offset="0.984375"/><stop stop-opacity="1" stop-color="rgb(69.15741%, 77.424622%, 100%)" offset="1"/></linearGradient><clipPath id="d350cbe2bd"><path d="M 1119.921875 340.941406 L 1204.632812 340.941406 L 1204.632812 468 L 1119.921875 468 Z M 1119.921875 340.941406 " clip-rule="nonzero"/></clipPath></defs><g clip-path="url(#45118acbf2)"><g clip-path="url(#a955f08317)"><path fill="url(#25674c172a)" d="M 66.492188 174.894531 L 66.492188 634.667969 L 1373.492188 634.667969 L 1373.492188 174.894531 Z M 66.492188 174.894531 " fill-rule="nonzero"/></g></g><g clip-path="url(#d350cbe2bd)"><path fill="#05066d" d="M 1119.980469 360.542969 L 1119.980469 340.9375 L 1204.582031 404.46875 L 1119.980469 468 L 1119.980469 448.394531 L 1178.476562 404.46875 Z M 1119.980469 360.542969 " fill-opacity="1" fill-rule="evenodd"/></g><g fill="#05066d" fill-opacity="1"><g transform="translate(277.376447, 457.79167)"><g><path d="M 43.03125 -105.785156 L 1.195312 0 L 28.539062 0 L 34.367188 -15.390625 L 70.074219 -15.390625 L 75.902344 0 L 104.738281 0 L 61.261719 -105.785156 Z M 52.296875 -63.652344 L 60.363281 -40.941406 L 60.960938 -39.148438 L 43.628906 -39.148438 L 44.527344 -41.539062 Z M 52.296875 -63.652344 "/></g></g></g><g fill="#05066d" fill-opacity="1"><g transform="translate(378.976561, 457.79167)"><g><path d="M 56.03125 -104.589844 L 7.621094 -104.589844 L 7.621094 0 L 55.730469 0 C 77.695312 0 89.199219 -16.882812 89.199219 -33.769531 C 89.199219 -42.582031 84.71875 -51.699219 73.660156 -57.375 C 80.535156 -62.15625 83.671875 -69.476562 83.671875 -76.648438 C 83.671875 -90.394531 72.617188 -104.589844 56.03125 -104.589844 Z M 52.144531 -66.789062 L 32.871094 -66.789062 L 32.871094 -81.429688 L 52.445312 -81.429688 C 56.480469 -81.429688 58.71875 -77.84375 58.71875 -74.257812 C 58.71875 -70.523438 56.628906 -66.789062 52.144531 -66.789062 Z M 55.730469 -24.207031 L 32.871094 -24.207031 L 32.871094 -43.179688 L 55.730469 -43.179688 C 61.109375 -43.179688 63.800781 -38.398438 63.800781 -33.617188 C 63.800781 -28.835938 61.109375 -24.207031 55.730469 -24.207031 Z M 55.730469 -24.207031 "/></g></g></g><g fill="#05066d" fill-opacity="1"><g transform="translate(471.014305, 457.79167)"><g><path d="M 7.621094 -52.144531 C 7.621094 -21.367188 31.824219 1.496094 61.707031 1.496094 C 91.589844 1.496094 115.945312 -21.816406 115.945312 -52.144531 C 115.945312 -82.925781 91.589844 -106.234375 61.707031 -106.234375 C 31.824219 -106.234375 7.621094 -82.925781 7.621094 -52.144531 Z M 33.019531 -52.144531 C 33.019531 -72.019531 47.363281 -81.730469 61.707031 -81.730469 C 76.050781 -81.730469 90.246094 -71.867188 90.246094 -52.144531 C 90.246094 -32.574219 75.753906 -22.710938 61.410156 -22.710938 C 47.066406 -22.710938 33.019531 -32.421875 33.019531 -52.144531 Z M 33.019531 -52.144531 "/></g></g></g><g fill="#05066d" fill-opacity="1"><g transform="translate(591.589726, 457.79167)"><g><path d="M 48.113281 1.496094 C 68.132812 1.496094 88.15625 -10.160156 88.15625 -33.617188 L 88.15625 -104.589844 L 62.605469 -104.589844 L 62.605469 -33.769531 C 62.605469 -26 55.132812 -22.113281 47.664062 -22.113281 C 40.34375 -22.113281 33.019531 -26 33.019531 -33.769531 L 33.019531 -104.589844 L 7.472656 -104.589844 L 7.472656 -33.617188 C 7.472656 -9.863281 27.792969 1.496094 48.113281 1.496094 Z M 48.113281 1.496094 "/></g></g></g><g fill="#05066d" fill-opacity="1"><g transform="translate(684.225091, 457.79167)"><g><path d="M 86.808594 -105.785156 L 4.929688 -105.785156 L 4.929688 -81.878906 L 33.171875 -81.878906 L 33.171875 0 L 58.71875 0 L 58.71875 -81.878906 L 86.808594 -81.878906 Z M 86.808594 -105.785156 "/></g></g></g><g fill="#05066d" fill-opacity="1"><g transform="translate(774.918114, 457.79167)"><g/></g></g><g fill="#05066d" fill-opacity="1"><g transform="translate(809.432174, 457.79167)"><g><path d="M 48.113281 1.496094 C 68.132812 1.496094 88.15625 -10.160156 88.15625 -33.617188 L 88.15625 -104.589844 L 62.605469 -104.589844 L 62.605469 -33.769531 C 62.605469 -26 55.132812 -22.113281 47.664062 -22.113281 C 40.34375 -22.113281 33.019531 -26 33.019531 -33.769531 L 33.019531 -104.589844 L 7.472656 -104.589844 L 7.472656 -33.617188 C 7.472656 -9.863281 27.792969 1.496094 48.113281 1.496094 Z M 48.113281 1.496094 "/></g></g></g><g fill="#05066d" fill-opacity="1"><g transform="translate(902.067539, 457.79167)"><g><path d="M 59.316406 -71.570312 L 85.015625 -71.570312 C 85.015625 -95.625 64.847656 -106.085938 46.167969 -106.085938 C 23.90625 -106.085938 5.082031 -92.339844 6.277344 -69.328125 L 6.277344 -69.476562 C 8.21875 -45.421875 28.238281 -41.6875 45.125 -40.042969 C 49.007812 -39.59375 60.960938 -39.296875 60.960938 -31.824219 C 60.960938 -25.847656 54.238281 -23.457031 45.871094 -23.457031 C 40.042969 -23.457031 31.378906 -25.402344 31.378906 -35.710938 L 5.527344 -35.710938 C 5.527344 -9.113281 28.6875 1.34375 45.722656 1.34375 C 65.59375 1.34375 86.808594 -11.207031 86.808594 -33.019531 C 86.808594 -35.261719 86.511719 -37.953125 86.0625 -40.34375 C 81.582031 -59.167969 62.902344 -63.054688 48.113281 -64.996094 C 44.675781 -65.292969 32.273438 -65.445312 32.273438 -73.214844 C 32.273438 -78.890625 37.800781 -82.328125 45.722656 -82.328125 C 53.640625 -82.328125 59.316406 -78.59375 59.316406 -71.570312 Z M 59.316406 -71.570312 "/></g></g></g></svg>