<?xml version="1.0" encoding="utf-8"?>
<!-- Generator: Adobe Illustrator 27.1.1, SVG Export Plug-In . SVG Version: 6.00 Build 0)  -->
<svg version="1.1" id="Layer_1" xmlns="http://www.w3.org/2000/svg" xmlns:xlink="http://www.w3.org/1999/xlink" x="0px" y="0px"
	 viewBox="0 0 1920 1080" style="enable-background:new 0 0 1920 1080;" xml:space="preserve">
<style type="text/css">
	.st0{fill:#FFFFFF;stroke:#000000;stroke-miterlimit:10;}
	.st1{clip-path:url(#SVGID_00000037693013079264901660000007640915482660221110_);}
	.st2{clip-path:url(#SVGID_00000165235949479486395900000002404692173987937675_);}
	.st3{fill:none;stroke:#05066D;stroke-width:48.0086;stroke-miterlimit:4.0007;}
	.st4{fill:#05066D;}
</style>
<rect x="99.7" y="241.8" class="st0" width="1717.3" height="594.4"/>
<g>
	<g>
		<defs>
			<rect id="SVGID_1_" x="88.7" y="233.2" width="1743" height="614"/>
		</defs>
		<clipPath id="SVGID_00000054979729546084206320000013185576203517010339_">
			<use xlink:href="#SVGID_1_"  style="overflow:visible;"/>
		</clipPath>
		<g style="clip-path:url(#SVGID_00000054979729546084206320000013185576203517010339_);">
			<g>
				<g>
					<defs>
						<path id="SVGID_00000108273277947934782020000013420837227417078409_" d="M101.7,233.2h1717c7.2,0,13,5.8,13,13v588
							c0,7.2-5.8,13-13,13h-1717c-7.2,0-13-5.8-13-13v-588C88.7,239,94.5,233.2,101.7,233.2"/>
					</defs>
					<clipPath id="SVGID_00000029007563548086124360000017227670565515002043_">
						<use xlink:href="#SVGID_00000108273277947934782020000013420837227417078409_"  style="overflow:visible;"/>
					</clipPath>
					<g style="clip-path:url(#SVGID_00000029007563548086124360000017227670565515002043_);">
						<path class="st3" d="M101.7,233.2h1717c7.2,0,13,5.8,13,13v588c0,7.2-5.8,13-13,13h-1717c-7.2,0-13-5.8-13-13v-588
							C88.7,239,94.5,233.2,101.7,233.2"/>
					</g>
				</g>
			</g>
		</g>
	</g>
</g>
<g>
	<g transform="translate(360.933102, 455.043851)">
		<g>
			<path class="st4" d="M177.7,10.6l-55.8,141h36.5l7.8-20.5h47.6l7.8,20.5H260l-58-141C202,10.6,177.7,10.6,177.7,10.6z M190,66.8
				l10.8,30.3l0.8,2.4h-23.1l1.2-3.2L190,66.8z"/>
		</g>
	</g>
</g>
<g>
	<g transform="translate(462.513511, 455.043851)">
		<g>
			<path class="st4" d="M228.9,12.2h-64.5v139.5h64.1c29.3,0,44.6-22.5,44.6-45c0-11.8-6-23.9-20.7-31.5
				c9.2-6.4,13.3-16.1,13.3-25.7C265.7,31.2,251,12.2,228.9,12.2z M223.7,62.6H198V43.1h26.1c5.4,0,8.4,4.8,8.4,9.6
				C232.5,57.7,229.7,62.6,223.7,62.6z M228.5,119.4H198V94.1h30.5c7.2,0,10.8,6.4,10.8,12.8S235.7,119.4,228.5,119.4z"/>
		</g>
	</g>
</g>
<g>
	<g transform="translate(554.533351, 455.043851)">
		<g>
			<path class="st4" d="M195,82.2c0,41,32.3,71.5,72.1,71.5s72.3-31.1,72.3-71.5c0-41-32.5-72.1-72.3-72.1S195,41.1,195,82.2z
				 M228.9,82.2c0-26.5,19.1-39.4,38.2-39.4s38.1,13.2,38.1,39.4c0,26.1-19.3,39.2-38.4,39.2S228.9,108.5,228.9,82.2z"/>
		</g>
	</g>
</g>
<g>
	<g transform="translate(675.0855, 455.043851)">
		<g>
			<path class="st4" d="M289.2,153.7c26.7,0,53.4-15.5,53.4-46.8V12.2h-34.1v94.4c0,10.4-10,15.5-19.9,15.5
				c-9.8,0-19.5-5.2-19.5-15.5V12.2H235v94.6C235,138.5,262.1,153.7,289.2,153.7z"/>
		</g>
	</g>
</g>
<g>
	<g transform="translate(767.702875, 455.043851)">
		<g>
			<path class="st4" d="M371.6,10.6H262.5v31.9h37.7v109.2h34.1V42.5h37.5V10.6H371.6z"/>
		</g>
	</g>
</g>
<g>
	<g transform="translate(858.378266, 455.043851)">
	</g>
</g>
<g>
	<g transform="translate(892.885265, 455.043851)">
		<g>
			<path class="st4" d="M361.8,153.7c26.7,0,53.4-15.5,53.4-46.8V12.2h-34.1v94.4c0,10.4-10,15.5-19.9,15.5
				c-9.8,0-19.5-5.2-19.5-15.5V12.2h-34.1v94.6C307.6,138.5,334.7,153.7,361.8,153.7z"/>
		</g>
	</g>
</g>
<g>
	<g transform="translate(985.502614, 455.043851)">
		<g>
			<path class="st4" d="M407.6,56.3h34.3c0-32.1-26.9-46-51.8-46c-29.7,0-54.8,18.3-53.2,49V59c2.6,32.1,29.3,37.1,51.8,39.2
				c5.2,0.6,21.1,1,21.1,11c0,8-9,11.2-20.1,11.2c-7.8,0-19.3-2.6-19.3-16.3h-34.5c0,35.5,30.9,49.4,53.6,49.4
				c26.5,0,54.8-16.7,54.8-45.8c0-3-0.4-6.6-1-9.8c-6-25.1-30.9-30.3-50.6-32.9c-4.6-0.4-21.1-0.6-21.1-11c0-7.6,7.4-12.2,17.9-12.2
				C400,41.9,407.6,46.9,407.6,56.3z"/>
		</g>
	</g>
</g>
</svg>
