<?xml version="1.0" encoding="utf-8"?>
<!-- Generator: Adobe Illustrator 27.1.1, SVG Export Plug-In . SVG Version: 6.00 Build 0)  -->
<svg version="1.1" id="Layer_1" xmlns="http://www.w3.org/2000/svg" xmlns:xlink="http://www.w3.org/1999/xlink" x="0px" y="0px"
	 viewBox="0 0 1920 1080" style="enable-background:new 0 0 1920 1080;" xml:space="preserve">
<style type="text/css">
	.st0{clip-path:url(#SVGID_00000100383523300054447470000014709599142243421098_);}
	.st1{clip-path:url(#SVGID_00000158716353870944664610000007530608323499970990_);}
	.st2{fill:#05066D;}
	.st3{clip-path:url(#SVGID_00000108307562599044014520000000235913304904733848_);}
	.st4{fill-rule:evenodd;clip-rule:evenodd;fill:#FFFFFF;}
	.st5{fill:#FFFFFF;}
</style>
<g>
	<defs>
		<rect id="SVGID_1_" x="88.7" y="233.2" width="1742.9" height="613.5"/>
	</defs>
	<clipPath id="SVGID_00000117646834513921264960000005966546707124229788_">
		<use xlink:href="#SVGID_1_"  style="overflow:visible;"/>
	</clipPath>
	<g style="clip-path:url(#SVGID_00000117646834513921264960000005966546707124229788_);">
		<g>
			<defs>
				<path id="SVGID_00000164510450066371013770000013784900792731507115_" d="M130.7,233.2h1658.7c11.1,0,21.8,4.4,29.7,12.3
					c7.9,7.9,12.3,18.6,12.3,29.7v529.6c0,11.1-4.4,21.8-12.3,29.7c-7.9,7.9-18.6,12.3-29.7,12.3H130.7c-11.1,0-21.8-4.4-29.7-12.3
					c-7.9-7.9-12.3-18.6-12.3-29.7V275.2c0-11.1,4.4-21.8,12.3-29.7C108.8,237.6,119.5,233.2,130.7,233.2"/>
			</defs>
			<clipPath id="SVGID_00000093159082108064821290000001296280211677015190_">
				<use xlink:href="#SVGID_00000164510450066371013770000013784900792731507115_"  style="overflow:visible;"/>
			</clipPath>
			<g style="clip-path:url(#SVGID_00000093159082108064821290000001296280211677015190_);">
				<path class="st2" d="M88.7,233.2h1742.9v613H88.7V233.2z"/>
			</g>
		</g>
	</g>
</g>
<g>
	<defs>
		<rect id="SVGID_00000160903509298427002610000000812401311000536728_" x="1493.2" y="454.6" width="112.9" height="169.4"/>
	</defs>
	<clipPath id="SVGID_00000181055453873659898480000008056938662805285286_">
		<use xlink:href="#SVGID_00000160903509298427002610000000812401311000536728_"  style="overflow:visible;"/>
	</clipPath>
	<g style="clip-path:url(#SVGID_00000181055453873659898480000008056938662805285286_);">
		<path class="st4" d="M1493.3,480.7v-26.1l112.8,84.7L1493.3,624v-26.1l78-58.6L1493.3,480.7z"/>
	</g>
</g>
<g>
	<g transform="translate(277.376447, 457.791612)">
		<g>
			<path class="st5" d="M149.8,11.6l-55.8,141h36.5l7.8-20.5h47.6l7.8,20.5h38.4l-58-141H149.8z M162.2,67.7L172.9,98l0.8,2.4h-23.1
				l1.2-3.2L162.2,67.7z"/>
		</g>
	</g>
</g>
<g>
	<g transform="translate(378.976561, 457.791612)">
		<g>
			<path class="st5" d="M201,13.1h-64.5v139.5h64.1c29.3,0,44.6-22.5,44.6-45c0-11.8-6-23.9-20.7-31.5c9.2-6.4,13.3-16.1,13.3-25.7
				C237.9,32.1,223.1,13.1,201,13.1z M195.9,63.5h-25.7V44h26.1c5.4,0,8.4,4.8,8.4,9.6C204.6,58.6,201.8,63.5,195.9,63.5z
				 M200.6,120.3h-30.5V95h30.5c7.2,0,10.8,6.4,10.8,12.8S207.8,120.3,200.6,120.3z"/>
		</g>
	</g>
</g>
<g>
	<g transform="translate(471.014305, 457.791612)">
		<g>
			<path class="st5" d="M167.2,83.1c0,41,32.3,71.5,72.1,71.5s72.3-31.1,72.3-71.5c0-41-32.5-72.1-72.3-72.1S167.2,42,167.2,83.1z
				 M201,83.1c0-26.5,19.1-39.4,38.2-39.4s38.1,13.2,38.1,39.4c0,26.1-19.3,39.2-38.4,39.2S201,109.4,201,83.1z"/>
		</g>
	</g>
</g>
<g>
	<g transform="translate(591.589726, 457.791612)">
		<g>
			<path class="st5" d="M261.3,154.6c26.7,0,53.4-15.5,53.4-46.8V13.1h-34.1v94.4c0,10.4-10,15.5-19.9,15.5
				c-9.8,0-19.5-5.2-19.5-15.5V13.1h-34.1v94.6C207.2,139.4,234.3,154.6,261.3,154.6z"/>
		</g>
	</g>
</g>
<g>
	<g transform="translate(684.225091, 457.791612)">
		<g>
			<path class="st5" d="M343.8,11.6H234.6v31.9h37.7v109.2h34.1V43.4h37.5V11.6z"/>
		</g>
	</g>
</g>
<g>
	<g transform="translate(774.918114, 457.791612)">
	</g>
</g>
<g>
	<g transform="translate(809.432174, 457.791612)">
		<g>
			<path class="st5" d="M334,154.6c26.7,0,53.4-15.5,53.4-46.8V13.1h-34.1v94.4c0,10.4-10,15.5-19.9,15.5c-9.8,0-19.5-5.2-19.5-15.5
				V13.1h-34.1v94.6C279.8,139.4,306.9,154.6,334,154.6z"/>
		</g>
	</g>
</g>
<g>
	<g transform="translate(902.067539, 457.791612)">
		<g>
			<path class="st5" d="M379.8,57.2H414c0-32.1-26.9-46-51.8-46c-29.7,0-54.8,18.3-53.2,49V60c2.6,32.1,29.3,37.1,51.8,39.2
				c5.2,0.6,21.1,1,21.1,11c0,8-9,11.2-20.1,11.2c-7.8,0-19.3-2.6-19.3-16.3h-34.5c0,35.5,30.9,49.4,53.6,49.4
				c26.5,0,54.8-16.7,54.8-45.8c0-3-0.4-6.6-1-9.8c-6-25.1-30.9-30.3-50.6-32.9c-4.6-0.4-21.1-0.6-21.1-11c0-7.6,7.4-12.2,17.9-12.2
				C372.2,42.8,379.8,47.8,379.8,57.2z"/>
		</g>
	</g>
</g>
</svg>
