<svg xmlns="http://www.w3.org/2000/svg" xmlns:xlink="http://www.w3.org/1999/xlink" width="1920" zoomAndPan="magnify" viewBox="0 0 1440 809.999993" height="1080" preserveAspectRatio="xMidYMid meet" version="1.0"><defs><g/><clipPath id="4b59a01162"><path d="M 66.492188 174.894531 L 1373.492188 174.894531 L 1373.492188 634.667969 L 66.492188 634.667969 Z M 66.492188 174.894531 " clip-rule="nonzero"/></clipPath><clipPath id="5754b24e7a"><path d="M 97.992188 174.894531 L 1342.007812 174.894531 C 1350.363281 174.894531 1358.375 178.210938 1364.28125 184.117188 C 1370.191406 190.027344 1373.507812 198.039062 1373.507812 206.394531 L 1373.507812 603.605469 C 1373.507812 611.960938 1370.191406 619.972656 1364.28125 625.882812 C 1358.375 631.789062 1350.363281 635.105469 1342.007812 635.105469 L 97.992188 635.105469 C 89.636719 635.105469 81.625 631.789062 75.71875 625.882812 C 69.808594 619.972656 66.492188 611.960938 66.492188 603.605469 L 66.492188 206.394531 C 66.492188 198.039062 69.808594 190.027344 75.71875 184.117188 C 81.625 178.210938 89.636719 174.894531 97.992188 174.894531 " clip-rule="nonzero"/></clipPath><linearGradient x1="-0.00000142562" gradientTransform="matrix(1.803035, 0, 0, 1.803035, 66.490729, 174.892658)" y1="0" x2="724.890634" gradientUnits="userSpaceOnUse" y2="0" id="291bd7b092"><stop stop-opacity="1" stop-color="rgb(89.399719%, 93.299866%, 100%)" offset="0"/><stop stop-opacity="1" stop-color="rgb(89.239502%, 93.174744%, 100%)" offset="0.015625"/><stop stop-opacity="1" stop-color="rgb(88.920593%, 92.9245%, 100%)" offset="0.03125"/><stop stop-opacity="1" stop-color="rgb(88.601685%, 92.674255%, 100%)" offset="0.046875"/><stop stop-opacity="1" stop-color="rgb(88.282776%, 92.424011%, 100%)" offset="0.0625"/><stop stop-opacity="1" stop-color="rgb(87.963867%, 92.173767%, 100%)" offset="0.078125"/><stop stop-opacity="1" stop-color="rgb(87.644958%, 91.923523%, 100%)" offset="0.09375"/><stop stop-opacity="1" stop-color="rgb(87.32605%, 91.674805%, 100%)" offset="0.109375"/><stop stop-opacity="1" stop-color="rgb(87.008667%, 91.424561%, 100%)" offset="0.125"/><stop stop-opacity="1" stop-color="rgb(86.689758%, 91.174316%, 100%)" offset="0.140625"/><stop stop-opacity="1" stop-color="rgb(86.37085%, 90.924072%, 100%)" offset="0.15625"/><stop stop-opacity="1" stop-color="rgb(86.051941%, 90.673828%, 100%)" offset="0.171875"/><stop stop-opacity="1" stop-color="rgb(85.733032%, 90.423584%, 100%)" offset="0.1875"/><stop stop-opacity="1" stop-color="rgb(85.414124%, 90.174866%, 100%)" offset="0.203125"/><stop stop-opacity="1" stop-color="rgb(85.095215%, 89.924622%, 100%)" offset="0.21875"/><stop stop-opacity="1" stop-color="rgb(84.776306%, 89.674377%, 100%)" offset="0.234375"/><stop stop-opacity="1" stop-color="rgb(84.457397%, 89.424133%, 100%)" offset="0.25"/><stop stop-opacity="1" stop-color="rgb(84.138489%, 89.173889%, 100%)" offset="0.265625"/><stop stop-opacity="1" stop-color="rgb(83.821106%, 88.923645%, 100%)" offset="0.28125"/><stop stop-opacity="1" stop-color="rgb(83.502197%, 88.673401%, 100%)" offset="0.296875"/><stop stop-opacity="1" stop-color="rgb(83.183289%, 88.424683%, 100%)" offset="0.3125"/><stop stop-opacity="1" stop-color="rgb(82.86438%, 88.174438%, 100%)" offset="0.328125"/><stop stop-opacity="1" stop-color="rgb(82.545471%, 87.924194%, 100%)" offset="0.34375"/><stop stop-opacity="1" stop-color="rgb(82.226562%, 87.67395%, 100%)" offset="0.359375"/><stop stop-opacity="1" stop-color="rgb(81.907654%, 87.423706%, 100%)" offset="0.375"/><stop stop-opacity="1" stop-color="rgb(81.588745%, 87.173462%, 100%)" offset="0.390625"/><stop stop-opacity="1" stop-color="rgb(81.269836%, 86.924744%, 100%)" offset="0.40625"/><stop stop-opacity="1" stop-color="rgb(80.950928%, 86.6745%, 100%)" offset="0.421875"/><stop stop-opacity="1" stop-color="rgb(80.633545%, 86.424255%, 100%)" offset="0.4375"/><stop stop-opacity="1" stop-color="rgb(80.314636%, 86.174011%, 100%)" offset="0.453125"/><stop stop-opacity="1" stop-color="rgb(79.995728%, 85.923767%, 100%)" offset="0.46875"/><stop stop-opacity="1" stop-color="rgb(79.676819%, 85.673523%, 100%)" offset="0.484375"/><stop stop-opacity="1" stop-color="rgb(79.35791%, 85.424805%, 100%)" offset="0.5"/><stop stop-opacity="1" stop-color="rgb(79.039001%, 85.174561%, 100%)" offset="0.515625"/><stop stop-opacity="1" stop-color="rgb(78.720093%, 84.924316%, 100%)" offset="0.53125"/><stop stop-opacity="1" stop-color="rgb(78.401184%, 84.674072%, 100%)" offset="0.546875"/><stop stop-opacity="1" stop-color="rgb(78.082275%, 84.423828%, 100%)" offset="0.5625"/><stop stop-opacity="1" stop-color="rgb(77.764893%, 84.173584%, 100%)" offset="0.578125"/><stop stop-opacity="1" stop-color="rgb(77.445984%, 83.924866%, 100%)" offset="0.59375"/><stop stop-opacity="1" stop-color="rgb(77.127075%, 83.674622%, 100%)" offset="0.609375"/><stop stop-opacity="1" stop-color="rgb(76.808167%, 83.424377%, 100%)" offset="0.625"/><stop stop-opacity="1" stop-color="rgb(76.489258%, 83.174133%, 100%)" offset="0.640625"/><stop stop-opacity="1" stop-color="rgb(76.170349%, 82.923889%, 100%)" offset="0.65625"/><stop stop-opacity="1" stop-color="rgb(75.85144%, 82.673645%, 100%)" offset="0.671875"/><stop stop-opacity="1" stop-color="rgb(75.532532%, 82.423401%, 100%)" offset="0.6875"/><stop stop-opacity="1" stop-color="rgb(75.213623%, 82.174683%, 100%)" offset="0.703125"/><stop stop-opacity="1" stop-color="rgb(74.894714%, 81.924438%, 100%)" offset="0.71875"/><stop stop-opacity="1" stop-color="rgb(74.577332%, 81.674194%, 100%)" offset="0.734375"/><stop stop-opacity="1" stop-color="rgb(74.258423%, 81.42395%, 100%)" offset="0.75"/><stop stop-opacity="1" stop-color="rgb(73.939514%, 81.173706%, 100%)" offset="0.765625"/><stop stop-opacity="1" stop-color="rgb(73.620605%, 80.923462%, 100%)" offset="0.78125"/><stop stop-opacity="1" stop-color="rgb(73.301697%, 80.674744%, 100%)" offset="0.796875"/><stop stop-opacity="1" stop-color="rgb(72.982788%, 80.4245%, 100%)" offset="0.8125"/><stop stop-opacity="1" stop-color="rgb(72.663879%, 80.174255%, 100%)" offset="0.828125"/><stop stop-opacity="1" stop-color="rgb(72.344971%, 79.924011%, 100%)" offset="0.84375"/><stop stop-opacity="1" stop-color="rgb(72.026062%, 79.673767%, 100%)" offset="0.859375"/><stop stop-opacity="1" stop-color="rgb(71.708679%, 79.423523%, 100%)" offset="0.875"/><stop stop-opacity="1" stop-color="rgb(71.389771%, 79.174805%, 100%)" offset="0.890625"/><stop stop-opacity="1" stop-color="rgb(71.070862%, 78.924561%, 100%)" offset="0.90625"/><stop stop-opacity="1" stop-color="rgb(70.751953%, 78.674316%, 100%)" offset="0.921875"/><stop stop-opacity="1" stop-color="rgb(70.433044%, 78.424072%, 100%)" offset="0.9375"/><stop stop-opacity="1" stop-color="rgb(70.114136%, 78.173828%, 100%)" offset="0.953125"/><stop stop-opacity="1" stop-color="rgb(69.795227%, 77.923584%, 100%)" offset="0.96875"/><stop stop-opacity="1" stop-color="rgb(69.476318%, 77.674866%, 100%)" offset="0.984375"/><stop stop-opacity="1" stop-color="rgb(69.15741%, 77.424622%, 100%)" offset="1"/></linearGradient><clipPath id="df18fbd673"><path d="M 1119.921875 340.941406 L 1204.632812 340.941406 L 1204.632812 468 L 1119.921875 468 Z M 1119.921875 340.941406 " clip-rule="nonzero"/></clipPath></defs><g clip-path="url(#4b59a01162)"><g clip-path="url(#5754b24e7a)"><path fill="url(#291bd7b092)" d="M 66.492188 174.894531 L 66.492188 634.667969 L 1373.492188 634.667969 L 1373.492188 174.894531 Z M 66.492188 174.894531 " fill-rule="nonzero"/></g></g><g clip-path="url(#df18fbd673)"><path fill="#05066d" d="M 1119.980469 360.542969 L 1119.980469 340.9375 L 1204.582031 404.46875 L 1119.980469 468 L 1119.980469 448.394531 L 1178.476562 404.46875 Z M 1119.980469 360.542969 " fill-opacity="1" fill-rule="evenodd"/></g><g fill="#05066d" fill-opacity="1"><g transform="translate(277.376447, 457.321514)"><g><path d="M 55.285156 -64.097656 L 27.792969 -104.589844 L 7.472656 -104.589844 L 7.472656 0 L 33.019531 0 L 33.019531 -51.996094 L 48.113281 -29.433594 L 62.304688 -29.433594 L 77.398438 -51.699219 L 77.398438 0 L 102.796875 0 L 102.796875 -104.589844 L 82.777344 -104.589844 Z M 55.285156 -64.097656 "/></g></g></g><g fill="#05066d" fill-opacity="1"><g transform="translate(385.251845, 457.321514)"><g><path d="M 43.03125 -105.785156 L 1.195312 0 L 28.539062 0 L 34.367188 -15.390625 L 70.074219 -15.390625 L 75.902344 0 L 104.738281 0 L 61.261719 -105.785156 Z M 52.296875 -63.652344 L 60.363281 -40.941406 L 60.960938 -39.148438 L 43.628906 -39.148438 L 44.527344 -41.539062 Z M 52.296875 -63.652344 "/></g></g></g><g fill="#05066d" fill-opacity="1"><g transform="translate(486.851959, 457.321514)"><g><path d="M 63.351562 -104.589844 L 63.351562 -52.296875 L 27.195312 -104.589844 L 7.472656 -104.589844 L 7.472656 0 L 32.871094 0 L 32.871094 -50.949219 L 68.582031 0 L 88.601562 0 L 88.601562 -104.589844 Z M 63.351562 -104.589844 "/></g></g></g><g fill="#05066d" fill-opacity="1"><g transform="translate(580.383828, 457.321514)"><g><path d="M 43.03125 -105.785156 L 1.195312 0 L 28.539062 0 L 34.367188 -15.390625 L 70.074219 -15.390625 L 75.902344 0 L 104.738281 0 L 61.261719 -105.785156 Z M 52.296875 -63.652344 L 60.363281 -40.941406 L 60.960938 -39.148438 L 43.628906 -39.148438 L 44.527344 -41.539062 Z M 52.296875 -63.652344 "/></g></g></g><g fill="#05066d" fill-opacity="1"><g transform="translate(681.983934, 457.321514)"><g><path d="M 58.273438 -81.132812 C 67.835938 -81.132812 79.9375 -76.949219 83.671875 -62.007812 L 110.566406 -62.007812 C 106.234375 -94.878906 78.59375 -106.085938 58.273438 -106.085938 C 28.6875 -106.085938 5.378906 -83.523438 5.378906 -52.144531 C 5.378906 -20.917969 28.089844 1.644531 58.273438 1.644531 C 77.84375 1.644531 99.808594 -11.65625 107.128906 -31.675781 C 108.773438 -35.5625 110.867188 -43.179688 110.867188 -55.285156 L 46.917969 -55.285156 L 46.917969 -32.421875 L 78.890625 -32.421875 C 73.363281 -24.953125 65.292969 -22.710938 58.273438 -22.710938 C 42.882812 -22.710938 31.226562 -34.367188 31.226562 -52.144531 C 31.226562 -69.03125 42.882812 -81.132812 58.273438 -81.132812 Z M 58.273438 -81.132812 "/></g></g></g><g fill="#05066d" fill-opacity="1"><g transform="translate(795.835828, 457.321514)"><g><path d="M 7.472656 -105.488281 L 7.472656 0 L 76.5 0 L 76.5 -24.652344 L 33.171875 -24.652344 L 33.171875 -41.386719 L 75.453125 -41.386719 L 75.453125 -66.191406 L 33.171875 -66.191406 L 33.171875 -80.832031 L 76.351562 -80.832031 L 76.351562 -105.488281 Z M 7.472656 -105.488281 "/></g></g></g></svg>