<svg xmlns="http://www.w3.org/2000/svg" xmlns:xlink="http://www.w3.org/1999/xlink" width="1920" zoomAndPan="magnify" viewBox="0 0 1440 809.999993" height="1080" preserveAspectRatio="xMidYMid meet" version="1.0"><defs><g/><clipPath id="9c91f19a9b"><path d="M 66.492188 174.894531 L 1373.691406 174.894531 L 1373.691406 635 L 66.492188 635 Z M 66.492188 174.894531 " clip-rule="nonzero"/></clipPath><clipPath id="6e932ebc26"><path d="M 97.992188 174.894531 L 1342.007812 174.894531 C 1350.363281 174.894531 1358.375 178.210938 1364.28125 184.117188 C 1370.191406 190.027344 1373.507812 198.039062 1373.507812 206.394531 L 1373.507812 603.605469 C 1373.507812 611.960938 1370.191406 619.972656 1364.28125 625.882812 C 1358.375 631.789062 1350.363281 635.105469 1342.007812 635.105469 L 97.992188 635.105469 C 89.636719 635.105469 81.625 631.789062 75.71875 625.882812 C 69.808594 619.972656 66.492188 611.960938 66.492188 603.605469 L 66.492188 206.394531 C 66.492188 198.039062 69.808594 190.027344 75.71875 184.117188 C 81.625 178.210938 89.636719 174.894531 97.992188 174.894531 " clip-rule="nonzero"/></clipPath><clipPath id="3ea4fc0876"><path d="M 1119.921875 340.941406 L 1204.632812 340.941406 L 1204.632812 468 L 1119.921875 468 Z M 1119.921875 340.941406 " clip-rule="nonzero"/></clipPath></defs><g clip-path="url(#9c91f19a9b)"><g clip-path="url(#6e932ebc26)"><path fill="#05066d" d="M 66.492188 174.894531 L 1373.691406 174.894531 L 1373.691406 634.667969 L 66.492188 634.667969 Z M 66.492188 174.894531 " fill-opacity="1" fill-rule="nonzero"/></g></g><g clip-path="url(#3ea4fc0876)"><path fill="#ffffff" d="M 1119.980469 360.542969 L 1119.980469 340.9375 L 1204.582031 404.46875 L 1119.980469 468 L 1119.980469 448.394531 L 1178.476562 404.46875 Z M 1119.980469 360.542969 " fill-opacity="1" fill-rule="evenodd"/></g><g fill="#ffffff" fill-opacity="1"><g transform="translate(277.376447, 457.321572)"><g><path d="M 55.285156 -64.097656 L 27.792969 -104.589844 L 7.472656 -104.589844 L 7.472656 0 L 33.019531 0 L 33.019531 -51.996094 L 48.113281 -29.433594 L 62.304688 -29.433594 L 77.398438 -51.699219 L 77.398438 0 L 102.796875 0 L 102.796875 -104.589844 L 82.777344 -104.589844 Z M 55.285156 -64.097656 "/></g></g></g><g fill="#ffffff" fill-opacity="1"><g transform="translate(385.251845, 457.321572)"><g><path d="M 43.03125 -105.785156 L 1.195312 0 L 28.539062 0 L 34.367188 -15.390625 L 70.074219 -15.390625 L 75.902344 0 L 104.738281 0 L 61.261719 -105.785156 Z M 52.296875 -63.652344 L 60.363281 -40.941406 L 60.960938 -39.148438 L 43.628906 -39.148438 L 44.527344 -41.539062 Z M 52.296875 -63.652344 "/></g></g></g><g fill="#ffffff" fill-opacity="1"><g transform="translate(486.851959, 457.321572)"><g><path d="M 63.351562 -104.589844 L 63.351562 -52.296875 L 27.195312 -104.589844 L 7.472656 -104.589844 L 7.472656 0 L 32.871094 0 L 32.871094 -50.949219 L 68.582031 0 L 88.601562 0 L 88.601562 -104.589844 Z M 63.351562 -104.589844 "/></g></g></g><g fill="#ffffff" fill-opacity="1"><g transform="translate(580.383828, 457.321572)"><g><path d="M 43.03125 -105.785156 L 1.195312 0 L 28.539062 0 L 34.367188 -15.390625 L 70.074219 -15.390625 L 75.902344 0 L 104.738281 0 L 61.261719 -105.785156 Z M 52.296875 -63.652344 L 60.363281 -40.941406 L 60.960938 -39.148438 L 43.628906 -39.148438 L 44.527344 -41.539062 Z M 52.296875 -63.652344 "/></g></g></g><g fill="#ffffff" fill-opacity="1"><g transform="translate(681.983934, 457.321572)"><g><path d="M 58.273438 -81.132812 C 67.835938 -81.132812 79.9375 -76.949219 83.671875 -62.007812 L 110.566406 -62.007812 C 106.234375 -94.878906 78.59375 -106.085938 58.273438 -106.085938 C 28.6875 -106.085938 5.378906 -83.523438 5.378906 -52.144531 C 5.378906 -20.917969 28.089844 1.644531 58.273438 1.644531 C 77.84375 1.644531 99.808594 -11.65625 107.128906 -31.675781 C 108.773438 -35.5625 110.867188 -43.179688 110.867188 -55.285156 L 46.917969 -55.285156 L 46.917969 -32.421875 L 78.890625 -32.421875 C 73.363281 -24.953125 65.292969 -22.710938 58.273438 -22.710938 C 42.882812 -22.710938 31.226562 -34.367188 31.226562 -52.144531 C 31.226562 -69.03125 42.882812 -81.132812 58.273438 -81.132812 Z M 58.273438 -81.132812 "/></g></g></g><g fill="#ffffff" fill-opacity="1"><g transform="translate(795.835828, 457.321572)"><g><path d="M 7.472656 -105.488281 L 7.472656 0 L 76.5 0 L 76.5 -24.652344 L 33.171875 -24.652344 L 33.171875 -41.386719 L 75.453125 -41.386719 L 75.453125 -66.191406 L 33.171875 -66.191406 L 33.171875 -80.832031 L 76.351562 -80.832031 L 76.351562 -105.488281 Z M 7.472656 -105.488281 "/></g></g></g></svg>