<?xml version="1.0" encoding="utf-8"?>
<!-- Generator: Adobe Illustrator 27.1.1, SVG Export Plug-In . SVG Version: 6.00 Build 0)  -->
<svg version="1.1" id="Layer_1" xmlns="http://www.w3.org/2000/svg" xmlns:xlink="http://www.w3.org/1999/xlink" x="0px" y="0px"
	 viewBox="0 0 1920 1080" style="enable-background:new 0 0 1920 1080;" xml:space="preserve">
<style type="text/css">
	.st0{fill:#FFFFFF;stroke:#000000;stroke-miterlimit:10;}
	.st1{clip-path:url(#SVGID_00000003082077865478064100000000083747014503121599_);}
	.st2{clip-path:url(#SVGID_00000108309363169737332650000015819212409061282237_);}
	.st3{fill:none;stroke:#05066D;stroke-width:48.0086;stroke-miterlimit:4.0007;}
	.st4{fill:#05066D;}
</style>
<rect x="99.7" y="248" class="st0" width="1720.3" height="588.3"/>
<g>
	<g>
		<g>
			<g>
				<defs>
					<rect id="SVGID_1_" x="88.7" y="233.2" width="1743" height="614"/>
				</defs>
				<clipPath id="SVGID_00000110435426949687742570000009245412359604034989_">
					<use xlink:href="#SVGID_1_"  style="overflow:visible;"/>
				</clipPath>
				<g style="clip-path:url(#SVGID_00000110435426949687742570000009245412359604034989_);">
					<g>
						<g>
							<g>
								<g>
									<defs>
										<path id="SVGID_00000068675585137653237290000012615627828179038600_" d="M101.7,233.2h1717c7.2,0,13,5.8,13,13v588
											c0,7.2-5.8,13-13,13h-1717c-7.2,0-13-5.8-13-13v-588C88.7,239,94.5,233.2,101.7,233.2"/>
									</defs>
									<clipPath id="SVGID_00000092448337061849107620000004746786660214296961_">
										<use xlink:href="#SVGID_00000068675585137653237290000012615627828179038600_"  style="overflow:visible;"/>
									</clipPath>
									<g style="clip-path:url(#SVGID_00000092448337061849107620000004746786660214296961_);">
										<path class="st3" d="M101.7,233.2h1717c7.2,0,13,5.8,13,13v588c0,7.2-5.8,13-13,13h-1717c-7.2,0-13-5.8-13-13v-588
											C88.7,239,94.5,233.2,101.7,233.2"/>
									</g>
								</g>
							</g>
						</g>
					</g>
				</g>
			</g>
		</g>
	</g>
</g>
<g>
	<g transform="translate(419.154314, 455.043791)">
		<g>
			<path class="st4" d="M213.4,66.2l-36.7-54h-27.1v139.5h34.1V82.4l20.1,30.1h18.9l20.1-29.7v68.9h33.9V12.2H250L213.4,66.2z"/>
		</g>
	</g>
</g>
<g>
	<g transform="translate(527.008865, 455.043791)">
		<g>
			<path class="st4" d="M233,10.6l-55.8,141h36.5l7.8-20.5h47.6l7.8,20.5h38.4l-58-141C257.3,10.6,233,10.6,233,10.6z M245.4,66.8
				l10.8,30.3l0.8,2.4h-23.1l1.2-3.2L245.4,66.8z"/>
		</g>
	</g>
</g>
<g>
	<g transform="translate(628.589281, 455.043791)">
		<g>
			<path class="st4" d="M294,12.2V82l-48.2-69.7h-26.3v139.5h33.9V83.7l47.6,67.9h26.7V12.2H294z"/>
		</g>
	</g>
</g>
<g>
	<g transform="translate(722.102976, 455.043791)">
		<g>
			<path class="st4" d="M298.1,10.6l-55.8,141h36.5l7.8-20.5h47.6l7.8,20.5h38.4l-58-141C322.4,10.6,298.1,10.6,298.1,10.6z
				 M310.4,66.8l10.8,30.3l0.8,2.4h-23.1l1.2-3.2L310.4,66.8z"/>
		</g>
	</g>
</g>
<g>
	<g transform="translate(823.683392, 455.043791)">
		<g>
			<path class="st4" d="M352.3,43.5c12.8,0,28.9,5.6,33.9,25.5H422c-5.8-43.8-42.6-58.8-69.7-58.8c-39.4,0-70.5,30.1-70.5,71.9
				c0,41.6,30.3,71.7,70.5,71.7c26.1,0,55.4-17.7,65.1-44.4c2.2-5.2,5-15.3,5-31.5h-85.3v30.5h42.6c-7.4,10-18.1,12.9-27.5,12.9
				c-20.5,0-36.1-15.5-36.1-39.2C316.2,59.6,331.7,43.5,352.3,43.5z"/>
		</g>
	</g>
</g>
<g>
	<g transform="translate(937.513312, 455.043791)">
		<g>
			<path class="st4" d="M322.5,11v140.6h92v-32.9h-57.8V96.5h56.4V63.4h-56.4V43.9h57.6V11H322.5z"/>
		</g>
	</g>
</g>
</svg>
