<?xml version="1.0" encoding="utf-8"?>
<!-- Generator: Adobe Illustrator 27.1.1, SVG Export Plug-In . SVG Version: 6.00 Build 0)  -->
<svg version="1.1" id="Layer_1" xmlns="http://www.w3.org/2000/svg" xmlns:xlink="http://www.w3.org/1999/xlink" x="0px" y="0px"
	 viewBox="0 0 1920 1080" style="enable-background:new 0 0 1920 1080;" xml:space="preserve">
<style type="text/css">
	.st0{fill:#FFFFFF;stroke:#000000;stroke-miterlimit:10;}
	.st1{clip-path:url(#SVGID_00000178912027128539378830000015387439568911964077_);}
	.st2{clip-path:url(#SVGID_00000180349061199354020850000017581473564522508216_);}
	.st3{fill:none;stroke:#05066D;stroke-width:48.0086;stroke-miterlimit:4.0007;}
	.st4{fill:#05066D;}
</style>
<rect x="100.9" y="242.2" class="st0" width="1717.3" height="594.4"/>
<g>
	<g>
		<defs>
			<rect id="SVGID_1_" x="88.7" y="233.2" width="1743" height="614"/>
		</defs>
		<clipPath id="SVGID_00000135686625982044349870000010973720826016582315_">
			<use xlink:href="#SVGID_1_"  style="overflow:visible;"/>
		</clipPath>
		<g style="clip-path:url(#SVGID_00000135686625982044349870000010973720826016582315_);">
			<g>
				<g>
					<defs>
						<path id="SVGID_00000065050323436568322670000001134375115728363163_" d="M101.7,233.2h1717c7.2,0,13,5.8,13,13v588
							c0,7.2-5.8,13-13,13h-1717c-7.2,0-13-5.8-13-13v-588C88.7,239,94.5,233.2,101.7,233.2"/>
					</defs>
					<clipPath id="SVGID_00000062152359183223075790000017231891056182111422_">
						<use xlink:href="#SVGID_00000065050323436568322670000001134375115728363163_"  style="overflow:visible;"/>
					</clipPath>
					<g style="clip-path:url(#SVGID_00000062152359183223075790000017231891056182111422_);">
						<path class="st3" d="M101.7,233.2h1717c7.2,0,13,5.8,13,13v588c0,7.2-5.8,13-13,13h-1717c-7.2,0-13-5.8-13-13v-588
							C88.7,239,94.5,233.2,101.7,233.2"/>
					</g>
				</g>
			</g>
		</g>
	</g>
</g>
<g>
	<g transform="translate(433.540218, 362.531459)">
		<g>
			<path class="st4" d="M223.6,25.4h34.3c0-32.1-26.9-46-51.8-46c-29.7,0-54.8,18.3-53.2,49v-0.2c2.6,32.1,29.3,37.1,51.8,39.2
				c5.2,0.6,21.1,1,21.1,11c0,8-9,11.2-20.1,11.2c-7.8,0-19.3-2.6-19.3-16.3h-34.5c0,35.5,30.9,49.4,53.6,49.4
				c26.5,0,54.8-16.7,54.8-45.8c0-3-0.4-6.6-1-9.8c-6-25.1-30.9-30.3-50.6-32.9c-4.6-0.4-21.1-0.6-21.1-11c0-7.6,7.4-12.2,17.9-12.2
				C216,11.1,223.6,16.1,223.6,25.4z"/>
		</g>
	</g>
</g>
<g>
	<g transform="translate(524.066208, 362.531459)">
		<g>
			<path class="st4" d="M184.6-19.8v140.6h92V88h-57.8V65.7h56.4V32.6h-56.4V13.1h57.6v-32.9C276.4-19.8,184.6-19.8,184.6-19.8z"/>
		</g>
	</g>
</g>
<g>
	<g transform="translate(604.4341, 362.531459)">
		<g>
			<path class="st4" d="M258.9-20.2l-55.8,141h36.5l7.8-20.5H295l7.8,20.5h38.4l-58-141C283.2-20.2,258.9-20.2,258.9-20.2z
				 M271.2,36L282,66.3l0.8,2.4h-23.1l1.2-3.2L271.2,36z"/>
		</g>
	</g>
</g>
<g>
	<g transform="translate(706.014502, 362.531459)">
		<g>
			<path class="st4" d="M299.5-19.8h-54.2v140.6h33.9V73.6h5.6l29.1,47.2h36.3v-6.4l-29.9-44.2c18.3-8.8,27.3-26.7,27.3-43.6
				C347.5,3.5,331.4-19.8,299.5-19.8z M298.7,42.8h-19.5V12.9h19.5c10.4,0,15.5,7.8,15.5,15.1C314.2,35.2,308.8,42.8,298.7,42.8z"/>
		</g>
	</g>
</g>
<g>
	<g transform="translate(793.851591, 362.531459)">
		<g>
			<path class="st4" d="M305.5,51.3c0-26.5,19.1-39.6,38.2-39.6c15.9,0,32.1,9.2,36.7,27.7h34.5c-4.4-35.9-35.3-60.2-71.1-60.2
				c-39.8,0-72.1,31.1-72.1,72.1s32.3,71.5,72.1,71.5c36.3,0,66.1-24.1,71.3-60.6h-34.5c-4.4,18.9-20.5,28.5-36.9,28.5
				C324.6,90.8,305.5,77.6,305.5,51.3z"/>
		</g>
	</g>
</g>
<g>
	<g transform="translate(908.428407, 362.531459)">
		<g>
			<path class="st4" d="M421.5,120.8V-18.6h-34.1V34h-40.6v-52.6h-34.1v139.5h34.1v-54h40.6v54L421.5,120.8L421.5,120.8z"/>
		</g>
	</g>
</g>
<g>
	<g transform="translate(411.388011, 535.996269)">
		<g>
			<path class="st4" d="M203.5,38h-56.4v140.6h34.1v-41.4h22.3c32.7,0,49-24.9,49-49.4S236.1,38,203.5,38z M203.5,105.2h-22.3V71.1
				h22.3c10.6,0,15.7,9,15.7,17.3C219.2,96.6,214,105.2,203.5,105.2z"/>
		</g>
	</g>
</g>
<g>
	<g transform="translate(499.523883, 535.996269)">
		<g>
			<path class="st4" d="M223.9,37.6l-55.8,141h36.5l7.8-20.5H260l7.8,20.5h38.4l-58-141C248.2,37.6,223.9,37.6,223.9,37.6z
				 M236.2,93.8l10.8,30.3l0.8,2.4h-23.1l1.2-3.2L236.2,93.8z"/>
		</g>
	</g>
</g>
<g>
	<g transform="translate(601.104292, 535.996269)">
		<g>
			<path class="st4" d="M316.1,37.6H206.9v31.9h37.7v109.2h34.1V69.5h37.5L316.1,37.6L316.1,37.6z"/>
		</g>
	</g>
</g>
<g>
	<g transform="translate(691.779669, 535.996269)">
		<g>
			<path class="st4" d="M319.4,178.7v-30.5h-23.1V69.5h23.1V38.4h-80.3v31.1h23.1v78.7h-23.1v30.5H319.4z"/>
		</g>
	</g>
</g>
<g>
	<g transform="translate(761.093145, 535.996269)">
		<g>
			<path class="st4" d="M263.7,38v140.6h92v-32.9h-57.8v-22.3h56.4v-33h-56.4V70.9h57.6V38H263.7z"/>
		</g>
	</g>
</g>
<g>
	<g transform="translate(841.46104, 535.996269)">
		<g>
			<path class="st4" d="M365,39.2v69.7l-48.2-69.7h-26.3v139.5h33.9v-67.9l47.6,67.9h26.7V39.2H365z"/>
		</g>
	</g>
</g>
<g>
	<g transform="translate(934.974708, 535.996269)">
		<g>
			<path class="st4" d="M427.4,37.6H318.2v31.9h37.7v109.2H390V69.5h37.5V37.6H427.4z"/>
		</g>
	</g>
</g>
</svg>
