<svg xmlns="http://www.w3.org/2000/svg" xmlns:xlink="http://www.w3.org/1999/xlink" width="1920" zoomAndPan="magnify" viewBox="0 0 1440 809.999993" height="1080" preserveAspectRatio="xMidYMid meet" version="1.0"><defs><g/><clipPath id="026e570163"><path d="M 66.492188 174.894531 L 1373.691406 174.894531 L 1373.691406 635 L 66.492188 635 Z M 66.492188 174.894531 " clip-rule="nonzero"/></clipPath><clipPath id="1eba4913f4"><path d="M 97.992188 174.894531 L 1342.007812 174.894531 C 1350.363281 174.894531 1358.375 178.210938 1364.28125 184.117188 C 1370.191406 190.027344 1373.507812 198.039062 1373.507812 206.394531 L 1373.507812 603.609375 C 1373.507812 611.960938 1370.191406 619.972656 1364.28125 625.882812 C 1358.375 631.789062 1350.363281 635.109375 1342.007812 635.109375 L 97.992188 635.109375 C 89.636719 635.109375 81.625 631.789062 75.71875 625.882812 C 69.808594 619.972656 66.492188 611.960938 66.492188 603.609375 L 66.492188 206.394531 C 66.492188 198.039062 69.808594 190.027344 75.71875 184.117188 C 81.625 178.210938 89.636719 174.894531 97.992188 174.894531 " clip-rule="nonzero"/></clipPath><clipPath id="273d189855"><path d="M 1119.921875 335.46875 L 1204.632812 335.46875 L 1204.632812 462.535156 L 1119.921875 462.535156 Z M 1119.921875 335.46875 " clip-rule="nonzero"/></clipPath></defs><g clip-path="url(#026e570163)"><g clip-path="url(#1eba4913f4)"><path fill="#05066d" d="M 66.492188 174.894531 L 1373.691406 174.894531 L 1373.691406 634.667969 L 66.492188 634.667969 Z M 66.492188 174.894531 " fill-opacity="1" fill-rule="nonzero"/></g></g><g clip-path="url(#273d189855)"><path fill="#ffffff" d="M 1119.980469 355.070312 L 1119.980469 335.464844 L 1204.582031 398.996094 L 1119.980469 462.527344 L 1119.980469 442.921875 L 1178.476562 398.996094 Z M 1119.980469 355.070312 " fill-opacity="1" fill-rule="evenodd"/></g><g fill="#ffffff" fill-opacity="1"><g transform="translate(277.376447, 365.587145)"><g><path d="M 59.316406 -71.570312 L 85.015625 -71.570312 C 85.015625 -95.625 64.847656 -106.085938 46.167969 -106.085938 C 23.90625 -106.085938 5.082031 -92.339844 6.277344 -69.328125 L 6.277344 -69.476562 C 8.21875 -45.421875 28.238281 -41.6875 45.125 -40.042969 C 49.007812 -39.59375 60.960938 -39.296875 60.960938 -31.824219 C 60.960938 -25.847656 54.238281 -23.457031 45.871094 -23.457031 C 40.042969 -23.457031 31.378906 -25.402344 31.378906 -35.710938 L 5.527344 -35.710938 C 5.527344 -9.113281 28.6875 1.34375 45.722656 1.34375 C 65.59375 1.34375 86.808594 -11.207031 86.808594 -33.019531 C 86.808594 -35.261719 86.511719 -37.953125 86.0625 -40.34375 C 81.582031 -59.167969 62.902344 -63.054688 48.113281 -64.996094 C 44.675781 -65.292969 32.273438 -65.445312 32.273438 -73.214844 C 32.273438 -78.890625 37.800781 -82.328125 45.722656 -82.328125 C 53.640625 -82.328125 59.316406 -78.59375 59.316406 -71.570312 Z M 59.316406 -71.570312 "/></g></g></g><g fill="#ffffff" fill-opacity="1"><g transform="translate(367.920036, 365.587145)"><g><path d="M 7.472656 -105.488281 L 7.472656 0 L 76.5 0 L 76.5 -24.652344 L 33.171875 -24.652344 L 33.171875 -41.386719 L 75.453125 -41.386719 L 75.453125 -66.191406 L 33.171875 -66.191406 L 33.171875 -80.832031 L 76.351562 -80.832031 L 76.351562 -105.488281 Z M 7.472656 -105.488281 "/></g></g></g><g fill="#ffffff" fill-opacity="1"><g transform="translate(448.30362, 365.587145)"><g><path d="M 43.03125 -105.785156 L 1.195312 0 L 28.539062 0 L 34.367188 -15.390625 L 70.074219 -15.390625 L 75.902344 0 L 104.738281 0 L 61.261719 -105.785156 Z M 52.296875 -63.652344 L 60.363281 -40.941406 L 60.960938 -39.148438 L 43.628906 -39.148438 L 44.527344 -41.539062 Z M 52.296875 -63.652344 "/></g></g></g><g fill="#ffffff" fill-opacity="1"><g transform="translate(549.903744, 365.587145)"><g><path d="M 48.113281 -105.488281 L 7.472656 -105.488281 L 7.472656 0 L 32.871094 0 L 32.871094 -35.410156 L 37.054688 -35.410156 L 58.871094 0 L 86.0625 0 L 86.0625 -4.78125 L 63.652344 -37.953125 C 77.398438 -44.527344 84.121094 -57.972656 84.121094 -70.671875 C 84.121094 -88.003906 72.019531 -105.488281 48.113281 -105.488281 Z M 47.515625 -58.570312 L 32.871094 -58.570312 L 32.871094 -80.984375 L 47.515625 -80.984375 C 55.285156 -80.984375 59.167969 -75.15625 59.167969 -69.628906 C 59.167969 -64.25 55.132812 -58.570312 47.515625 -58.570312 Z M 47.515625 -58.570312 "/></g></g></g><g fill="#ffffff" fill-opacity="1"><g transform="translate(637.757942, 365.587145)"><g><path d="M 30.628906 -52.144531 C 30.628906 -72.019531 44.972656 -81.878906 59.316406 -81.878906 C 71.269531 -81.878906 83.375 -75.007812 86.808594 -61.109375 L 112.660156 -61.109375 C 109.371094 -88.003906 86.210938 -106.234375 59.316406 -106.234375 C 29.433594 -106.234375 5.230469 -82.925781 5.230469 -52.144531 C 5.230469 -21.367188 29.433594 1.496094 59.316406 1.496094 C 86.511719 1.496094 108.921875 -16.585938 112.808594 -43.929688 L 86.960938 -43.929688 C 83.671875 -29.734375 71.570312 -22.5625 59.316406 -22.5625 C 44.972656 -22.5625 30.628906 -32.421875 30.628906 -52.144531 Z M 30.628906 -52.144531 "/></g></g></g><g fill="#ffffff" fill-opacity="1"><g transform="translate(752.356875, 365.587145)"><g><path d="M 89.050781 0 L 89.050781 -104.589844 L 63.5 -104.589844 L 63.5 -65.144531 L 33.019531 -65.144531 L 33.019531 -104.589844 L 7.472656 -104.589844 L 7.472656 0 L 33.019531 0 L 33.019531 -40.492188 L 63.5 -40.492188 L 63.5 0 Z M 89.050781 0 "/></g></g></g><g fill="#ffffff" fill-opacity="1"><g transform="translate(277.376447, 539.992158)"><g><path d="M 49.753906 -105.488281 L 7.472656 -105.488281 L 7.472656 0 L 33.019531 0 L 33.019531 -31.078125 L 49.753906 -31.078125 C 74.257812 -31.078125 86.511719 -49.753906 86.511719 -68.132812 C 86.511719 -86.511719 74.257812 -105.488281 49.753906 -105.488281 Z M 49.753906 -55.132812 L 33.019531 -55.132812 L 33.019531 -80.683594 L 49.753906 -80.683594 C 57.675781 -80.683594 61.558594 -73.960938 61.558594 -67.683594 C 61.558594 -61.558594 57.675781 -55.132812 49.753906 -55.132812 Z M 49.753906 -55.132812 "/></g></g></g><g fill="#ffffff" fill-opacity="1"><g transform="translate(365.529471, 539.992158)"><g><path d="M 43.03125 -105.785156 L 1.195312 0 L 28.539062 0 L 34.367188 -15.390625 L 70.074219 -15.390625 L 75.902344 0 L 104.738281 0 L 61.261719 -105.785156 Z M 52.296875 -63.652344 L 60.363281 -40.941406 L 60.960938 -39.148438 L 43.628906 -39.148438 L 44.527344 -41.539062 Z M 52.296875 -63.652344 "/></g></g></g><g fill="#ffffff" fill-opacity="1"><g transform="translate(467.129585, 539.992158)"><g><path d="M 86.808594 -105.785156 L 4.929688 -105.785156 L 4.929688 -81.878906 L 33.171875 -81.878906 L 33.171875 0 L 58.71875 0 L 58.71875 -81.878906 L 86.808594 -81.878906 Z M 86.808594 -105.785156 "/></g></g></g><g fill="#ffffff" fill-opacity="1"><g transform="translate(557.822629, 539.992158)"><g><path d="M 66.640625 0 L 66.640625 -22.859375 L 49.308594 -22.859375 L 49.308594 -81.878906 L 66.640625 -81.878906 L 66.640625 -105.1875 L 6.425781 -105.1875 L 6.425781 -81.878906 L 23.757812 -81.878906 L 23.757812 -22.859375 L 6.425781 -22.859375 L 6.425781 0 Z M 66.640625 0 "/></g></g></g><g fill="#ffffff" fill-opacity="1"><g transform="translate(627.149715, 539.992158)"><g><path d="M 7.472656 -105.488281 L 7.472656 0 L 76.5 0 L 76.5 -24.652344 L 33.171875 -24.652344 L 33.171875 -41.386719 L 75.453125 -41.386719 L 75.453125 -66.191406 L 33.171875 -66.191406 L 33.171875 -80.832031 L 76.351562 -80.832031 L 76.351562 -105.488281 Z M 7.472656 -105.488281 "/></g></g></g><g fill="#ffffff" fill-opacity="1"><g transform="translate(707.533292, 539.992158)"><g><path d="M 63.351562 -104.589844 L 63.351562 -52.296875 L 27.195312 -104.589844 L 7.472656 -104.589844 L 7.472656 0 L 32.871094 0 L 32.871094 -50.949219 L 68.582031 0 L 88.601562 0 L 88.601562 -104.589844 Z M 63.351562 -104.589844 "/></g></g></g><g fill="#ffffff" fill-opacity="1"><g transform="translate(801.065143, 539.992158)"><g><path d="M 86.808594 -105.785156 L 4.929688 -105.785156 L 4.929688 -81.878906 L 33.171875 -81.878906 L 33.171875 0 L 58.71875 0 L 58.71875 -81.878906 L 86.808594 -81.878906 Z M 86.808594 -105.785156 "/></g></g></g></svg>