<svg xmlns="http://www.w3.org/2000/svg" xmlns:xlink="http://www.w3.org/1999/xlink" width="1920" zoomAndPan="magnify" viewBox="0 0 1440 809.999993" height="1080" preserveAspectRatio="xMidYMid meet" version="1.0"><defs><g/><clipPath id="6995f34b45"><path d="M 66.492188 174.894531 L 1373.332031 174.894531 L 1373.332031 635.445312 L 66.492188 635.445312 Z M 66.492188 174.894531 " clip-rule="nonzero"/></clipPath><clipPath id="3546a27f28"><path d="M 97.992188 174.894531 L 1342.007812 174.894531 C 1350.363281 174.894531 1358.375 178.210938 1364.285156 184.117188 C 1370.191406 190.027344 1373.507812 198.039062 1373.507812 206.394531 L 1373.507812 603.953125 C 1373.507812 612.308594 1370.191406 620.320312 1364.285156 626.226562 C 1358.375 632.132812 1350.363281 635.453125 1342.007812 635.453125 L 97.992188 635.453125 C 89.636719 635.453125 81.625 632.132812 75.71875 626.226562 C 69.808594 620.320312 66.492188 612.308594 66.492188 603.953125 L 66.492188 206.394531 C 66.492188 198.039062 69.808594 190.027344 75.71875 184.117188 C 81.625 178.210938 89.636719 174.894531 97.992188 174.894531 " clip-rule="nonzero"/></clipPath><linearGradient x1="-0.00000356406" gradientTransform="matrix(0.721214, 0, 0, 0.721214, 66.490729, 174.892658)" y1="0" x2="1811.999871" gradientUnits="userSpaceOnUse" y2="0" id="c14593cb50"><stop stop-opacity="1" stop-color="rgb(89.399719%, 93.299866%, 100%)" offset="0"/><stop stop-opacity="1" stop-color="rgb(89.239502%, 93.174744%, 100%)" offset="0.015625"/><stop stop-opacity="1" stop-color="rgb(88.920593%, 92.9245%, 100%)" offset="0.03125"/><stop stop-opacity="1" stop-color="rgb(88.601685%, 92.674255%, 100%)" offset="0.046875"/><stop stop-opacity="1" stop-color="rgb(88.282776%, 92.424011%, 100%)" offset="0.0625"/><stop stop-opacity="1" stop-color="rgb(87.963867%, 92.173767%, 100%)" offset="0.078125"/><stop stop-opacity="1" stop-color="rgb(87.644958%, 91.923523%, 100%)" offset="0.09375"/><stop stop-opacity="1" stop-color="rgb(87.327576%, 91.674805%, 100%)" offset="0.109375"/><stop stop-opacity="1" stop-color="rgb(87.008667%, 91.424561%, 100%)" offset="0.125"/><stop stop-opacity="1" stop-color="rgb(86.689758%, 91.174316%, 100%)" offset="0.140625"/><stop stop-opacity="1" stop-color="rgb(86.37085%, 90.924072%, 100%)" offset="0.15625"/><stop stop-opacity="1" stop-color="rgb(86.051941%, 90.673828%, 100%)" offset="0.171875"/><stop stop-opacity="1" stop-color="rgb(85.733032%, 90.42511%, 100%)" offset="0.1875"/><stop stop-opacity="1" stop-color="rgb(85.414124%, 90.174866%, 100%)" offset="0.203125"/><stop stop-opacity="1" stop-color="rgb(85.096741%, 89.924622%, 100%)" offset="0.21875"/><stop stop-opacity="1" stop-color="rgb(84.777832%, 89.674377%, 100%)" offset="0.234375"/><stop stop-opacity="1" stop-color="rgb(84.458923%, 89.424133%, 100%)" offset="0.25"/><stop stop-opacity="1" stop-color="rgb(84.140015%, 89.173889%, 100%)" offset="0.265625"/><stop stop-opacity="1" stop-color="rgb(83.821106%, 88.925171%, 100%)" offset="0.28125"/><stop stop-opacity="1" stop-color="rgb(83.502197%, 88.674927%, 100%)" offset="0.296875"/><stop stop-opacity="1" stop-color="rgb(83.183289%, 88.424683%, 100%)" offset="0.3125"/><stop stop-opacity="1" stop-color="rgb(82.86438%, 88.174438%, 100%)" offset="0.328125"/><stop stop-opacity="1" stop-color="rgb(82.546997%, 87.924194%, 100%)" offset="0.34375"/><stop stop-opacity="1" stop-color="rgb(82.228088%, 87.675476%, 100%)" offset="0.359375"/><stop stop-opacity="1" stop-color="rgb(81.90918%, 87.425232%, 100%)" offset="0.375"/><stop stop-opacity="1" stop-color="rgb(81.590271%, 87.174988%, 100%)" offset="0.390625"/><stop stop-opacity="1" stop-color="rgb(81.271362%, 86.924744%, 100%)" offset="0.40625"/><stop stop-opacity="1" stop-color="rgb(80.952454%, 86.6745%, 100%)" offset="0.421875"/><stop stop-opacity="1" stop-color="rgb(80.633545%, 86.424255%, 100%)" offset="0.4375"/><stop stop-opacity="1" stop-color="rgb(80.314636%, 86.175537%, 100%)" offset="0.453125"/><stop stop-opacity="1" stop-color="rgb(79.997253%, 85.925293%, 100%)" offset="0.46875"/><stop stop-opacity="1" stop-color="rgb(79.678345%, 85.675049%, 100%)" offset="0.484375"/><stop stop-opacity="1" stop-color="rgb(79.359436%, 85.424805%, 100%)" offset="0.5"/><stop stop-opacity="1" stop-color="rgb(79.040527%, 85.174561%, 100%)" offset="0.515625"/><stop stop-opacity="1" stop-color="rgb(78.721619%, 84.925842%, 100%)" offset="0.53125"/><stop stop-opacity="1" stop-color="rgb(78.40271%, 84.675598%, 100%)" offset="0.546875"/><stop stop-opacity="1" stop-color="rgb(78.083801%, 84.425354%, 100%)" offset="0.5625"/><stop stop-opacity="1" stop-color="rgb(77.766418%, 84.17511%, 100%)" offset="0.578125"/><stop stop-opacity="1" stop-color="rgb(77.44751%, 83.924866%, 100%)" offset="0.59375"/><stop stop-opacity="1" stop-color="rgb(77.128601%, 83.674622%, 100%)" offset="0.609375"/><stop stop-opacity="1" stop-color="rgb(76.809692%, 83.425903%, 100%)" offset="0.625"/><stop stop-opacity="1" stop-color="rgb(76.490784%, 83.175659%, 100%)" offset="0.640625"/><stop stop-opacity="1" stop-color="rgb(76.171875%, 82.925415%, 100%)" offset="0.65625"/><stop stop-opacity="1" stop-color="rgb(75.852966%, 82.675171%, 100%)" offset="0.671875"/><stop stop-opacity="1" stop-color="rgb(75.534058%, 82.424927%, 100%)" offset="0.6875"/><stop stop-opacity="1" stop-color="rgb(75.216675%, 82.176208%, 100%)" offset="0.703125"/><stop stop-opacity="1" stop-color="rgb(74.897766%, 81.925964%, 100%)" offset="0.71875"/><stop stop-opacity="1" stop-color="rgb(74.578857%, 81.67572%, 100%)" offset="0.734375"/><stop stop-opacity="1" stop-color="rgb(74.259949%, 81.425476%, 100%)" offset="0.75"/><stop stop-opacity="1" stop-color="rgb(73.94104%, 81.175232%, 100%)" offset="0.765625"/><stop stop-opacity="1" stop-color="rgb(73.622131%, 80.924988%, 100%)" offset="0.78125"/><stop stop-opacity="1" stop-color="rgb(73.303223%, 80.67627%, 100%)" offset="0.796875"/><stop stop-opacity="1" stop-color="rgb(72.984314%, 80.426025%, 100%)" offset="0.8125"/><stop stop-opacity="1" stop-color="rgb(72.666931%, 80.175781%, 100%)" offset="0.828125"/><stop stop-opacity="1" stop-color="rgb(72.348022%, 79.925537%, 100%)" offset="0.84375"/><stop stop-opacity="1" stop-color="rgb(72.029114%, 79.675293%, 100%)" offset="0.859375"/><stop stop-opacity="1" stop-color="rgb(71.710205%, 79.426575%, 100%)" offset="0.875"/><stop stop-opacity="1" stop-color="rgb(71.391296%, 79.176331%, 100%)" offset="0.890625"/><stop stop-opacity="1" stop-color="rgb(71.072388%, 78.926086%, 100%)" offset="0.90625"/><stop stop-opacity="1" stop-color="rgb(70.753479%, 78.675842%, 100%)" offset="0.921875"/><stop stop-opacity="1" stop-color="rgb(70.436096%, 78.425598%, 100%)" offset="0.9375"/><stop stop-opacity="1" stop-color="rgb(70.117188%, 78.175354%, 100%)" offset="0.953125"/><stop stop-opacity="1" stop-color="rgb(69.798279%, 77.926636%, 100%)" offset="0.96875"/><stop stop-opacity="1" stop-color="rgb(69.47937%, 77.676392%, 100%)" offset="0.984375"/><stop stop-opacity="1" stop-color="rgb(69.160461%, 77.426147%, 100%)" offset="1"/></linearGradient><clipPath id="b92ffbd39b"><path d="M 304.1875 340.941406 L 389.675781 340.941406 L 389.675781 469.191406 L 304.1875 469.191406 Z M 304.1875 340.941406 " clip-rule="nonzero"/></clipPath></defs><g clip-path="url(#6995f34b45)"><g clip-path="url(#3546a27f28)"><path fill="url(#c14593cb50)" d="M 66.492188 174.894531 L 66.492188 635.445312 L 1373.332031 635.445312 L 1373.332031 174.894531 Z M 66.492188 174.894531 " fill-rule="nonzero"/></g></g><g clip-path="url(#b92ffbd39b)"><path fill="#05066d" d="M 389.632812 360.726562 L 389.632812 340.9375 L 304.242188 405.058594 L 389.632812 469.183594 L 389.632812 449.394531 L 330.589844 405.058594 Z M 389.632812 360.726562 " fill-opacity="1" fill-rule="evenodd"/></g><g fill="#05066d" fill-opacity="1"><g transform="translate(538.095129, 457.297497)"><g><path d="M 56.03125 -104.589844 L 7.621094 -104.589844 L 7.621094 0 L 55.730469 0 C 77.695312 0 89.199219 -16.882812 89.199219 -33.769531 C 89.199219 -42.582031 84.71875 -51.699219 73.660156 -57.375 C 80.535156 -62.15625 83.671875 -69.476562 83.671875 -76.648438 C 83.671875 -90.394531 72.617188 -104.589844 56.03125 -104.589844 Z M 52.144531 -66.789062 L 32.871094 -66.789062 L 32.871094 -81.429688 L 52.445312 -81.429688 C 56.480469 -81.429688 58.71875 -77.84375 58.71875 -74.257812 C 58.71875 -70.523438 56.628906 -66.789062 52.144531 -66.789062 Z M 55.730469 -24.207031 L 32.871094 -24.207031 L 32.871094 -43.179688 L 55.730469 -43.179688 C 61.109375 -43.179688 63.800781 -38.398438 63.800781 -33.617188 C 63.800781 -28.835938 61.109375 -24.207031 55.730469 -24.207031 Z M 55.730469 -24.207031 "/></g></g></g><g fill="#05066d" fill-opacity="1"><g transform="translate(630.134123, 457.297497)"><g><path d="M 43.03125 -105.785156 L 1.195312 0 L 28.539062 0 L 34.367188 -15.390625 L 70.074219 -15.390625 L 75.902344 0 L 104.738281 0 L 61.261719 -105.785156 Z M 52.296875 -63.652344 L 60.363281 -40.941406 L 60.960938 -39.148438 L 43.628906 -39.148438 L 44.527344 -41.539062 Z M 52.296875 -63.652344 "/></g></g></g><g fill="#05066d" fill-opacity="1"><g transform="translate(731.735612, 457.297497)"><g><path d="M 30.628906 -52.144531 C 30.628906 -72.019531 44.972656 -81.878906 59.316406 -81.878906 C 71.269531 -81.878906 83.375 -75.007812 86.808594 -61.109375 L 112.660156 -61.109375 C 109.371094 -88.003906 86.210938 -106.234375 59.316406 -106.234375 C 29.433594 -106.234375 5.230469 -82.925781 5.230469 -52.144531 C 5.230469 -21.367188 29.433594 1.496094 59.316406 1.496094 C 86.511719 1.496094 108.921875 -16.585938 112.808594 -43.929688 L 86.960938 -43.929688 C 83.671875 -29.734375 71.570312 -22.5625 59.316406 -22.5625 C 44.972656 -22.5625 30.628906 -32.421875 30.628906 -52.144531 Z M 30.628906 -52.144531 "/></g></g></g><g fill="#05066d" fill-opacity="1"><g transform="translate(846.336124, 457.297497)"><g><path d="M 64.398438 0 L 96.074219 0 L 96.074219 -1.34375 L 55.582031 -52.59375 L 92.636719 -103.097656 L 92.636719 -104.589844 L 62.304688 -104.589844 L 33.320312 -63.949219 L 33.320312 -104.589844 L 7.769531 -104.589844 L 7.769531 0 L 33.320312 0 L 33.320312 -40.492188 Z M 64.398438 0 "/></g></g></g></svg>